<?xml version="1.0" encoding="UTF-8"?>
<!DOCTYPE svg PUBLIC "-//W3C//DTD SVG 1.1//EN" "http://www.w3.org/Graphics/SVG/1.1/DTD/svg11.dtd">
<svg xmlns="http://www.w3.org/2000/svg" style="background-color: rgb(255, 255, 255);" xmlns:xlink="http://www.w3.org/1999/xlink" version="1.1" width="167px" height="198px" viewBox="-0.5 -0.5 167 198"><defs/><g><path d="M 97 45 L 120 60 L 97 75 L 74 60 Z" fill="#a20025" stroke="none" transform="rotate(60,97,60)" pointer-events="all"/><path d="M 63 113 L 86 128 L 63 143 L 40 128 Z" fill="#a20025" stroke="none" transform="rotate(-0.2,63,128)" pointer-events="all"/><path d="M 16 57 L 86 7" fill="none" stroke="rgb(0, 0, 0)" stroke-miterlimit="10" pointer-events="stroke"/><path d="M 166 57 L 86 7" fill="none" stroke="rgb(0, 0, 0)" stroke-miterlimit="10" pointer-events="stroke"/><path d="M 16 147 L 16 57" fill="none" stroke="rgb(0, 0, 0)" stroke-miterlimit="10" pointer-events="stroke"/><path d="M 96 197 L 16 147" fill="none" stroke="rgb(0, 0, 0)" stroke-miterlimit="10" pointer-events="stroke"/><path d="M 166 147 L 86 97" fill="none" stroke="#999999" stroke-miterlimit="10" pointer-events="stroke"/><path d="M 166 147 L 166 57" fill="none" stroke="rgb(0, 0, 0)" stroke-miterlimit="10" pointer-events="stroke"/><path d="M 96 197 L 166 147" fill="none" stroke="rgb(0, 0, 0)" stroke-miterlimit="10" pointer-events="stroke"/><path d="M 16 147 L 86 97" fill="none" stroke="#999999" stroke-miterlimit="10" pointer-events="stroke"/><path d="M 86 7 L 86 97" fill="none" stroke="#999999" stroke-miterlimit="10" pointer-events="stroke"/><ellipse cx="5" cy="72" rx="5" ry="5" fill="#666666" stroke="none" pointer-events="all"/><ellipse cx="6" cy="102" rx="5" ry="5" fill="#666666" stroke="none" pointer-events="all"/><ellipse cx="7" cy="132" rx="5" ry="5" fill="#666666" stroke="none" pointer-events="all"/><ellipse cx="22" cy="161" rx="5" ry="5" fill="#666666" stroke="none" pointer-events="all"/><ellipse cx="47" cy="177" rx="5" ry="5" fill="#666666" stroke="none" pointer-events="all"/><ellipse cx="73" cy="193" rx="5" ry="5" fill="#666666" stroke="none" pointer-events="all"/><ellipse cx="26" cy="38" rx="5" ry="5" fill="#666666" stroke="none" pointer-events="all"/><ellipse cx="49" cy="22" rx="5" ry="5" fill="#666666" stroke="none" pointer-events="all"/><ellipse cx="73" cy="5" rx="5" ry="5" fill="#666666" stroke="none" pointer-events="all"/><path d="M 64 23 L 64 113" fill="none" stroke="#999999" stroke-miterlimit="10" pointer-events="stroke"/><path d="M 40 40 L 40 130" fill="none" stroke="#999999" stroke-miterlimit="10" pointer-events="stroke"/><path d="M 109 22 L 109 112" fill="none" stroke="#999999" stroke-miterlimit="10" pointer-events="stroke"/><path d="M 136 38 L 136 128" fill="none" stroke="#999999" stroke-miterlimit="10" pointer-events="stroke"/><path d="M 16 117 L 86 67" fill="none" stroke="#999999" stroke-miterlimit="10" pointer-events="stroke"/><path d="M 16 89 L 86 39" fill="none" stroke="#999999" stroke-miterlimit="10" pointer-events="stroke"/><path d="M 166 117 L 86 67" fill="none" stroke="#999999" stroke-miterlimit="10" pointer-events="stroke"/><path d="M 166 89 L 86 39" fill="none" stroke="#999999" stroke-miterlimit="10" pointer-events="stroke"/><path d="M 144 162 L 64 112" fill="none" stroke="#999999" stroke-miterlimit="10" pointer-events="stroke"/><path d="M 120 180 L 40 130" fill="none" stroke="#999999" stroke-miterlimit="10" pointer-events="stroke"/><path d="M 38 161 L 108 111" fill="none" stroke="#999999" stroke-miterlimit="10" pointer-events="stroke"/><path d="M 66 178 L 136 128" fill="none" stroke="#999999" stroke-miterlimit="10" pointer-events="stroke"/><path d="M 63.5 56 L 86 70.54 L 86 97.46 L 63.5 112 L 41 97.46 L 41 70.54 Z" fill="#666666" stroke="rgb(0, 0, 0)" stroke-miterlimit="10" pointer-events="all"/><path d="M 41 70.54 L 63.5 85.09 L 86 70.54 M 63.5 85.09 L 63.5 112" fill="none" stroke="rgb(0, 0, 0)" stroke-miterlimit="10" pointer-events="all"/></g></svg>